<?xml version="1.0" encoding="UTF-8"?>
<svg version="1.1" xmlns="http://www.w3.org/2000/svg" width="540" height="500">
<path d="M0 0 C15.84 0 31.68 0 48 0 C48 2.64 48 5.28 48 8 C55.92 8 63.84 8 72 8 C72 10.64 72 13.28 72 16 C77.28 16 82.56 16 88 16 C88 18.64 88 21.28 88 24 C90.64 24 93.28 24 96 24 C96 26.64 96 29.28 96 32 C101.28 32 106.56 32 112 32 C112 21.44 112 10.88 112 0 C127.84 0 143.68 0 160 0 C160 10.56 160 21.12 160 32 C165.28 32 170.56 32 176 32 C176 50.48 176 68.96 176 88 C160.16 88 144.32 88 128 88 C128 103.84 128 119.68 128 136 C125.36 136 122.72 136 120 136 C120 141.28 120 146.56 120 152 C117.36 152 114.72 152 112 152 C112 157.28 112 162.56 112 168 C109.36 168 106.72 168 104 168 C104 170.64 104 173.28 104 176 C101.36 176 98.72 176 96 176 C96 178.64 96 181.28 96 184 C93.36 184 90.72 184 88 184 C88 186.64 88 189.28 88 192 C82.72 192 77.44 192 72 192 C72 194.64 72 197.28 72 200 C64.08 200 56.16 200 48 200 C48 202.64 48 205.28 48 208 C29.52 208 11.04 208 -8 208 C-8 205.36 -8 202.72 -8 200 C-13.28 200 -18.56 200 -24 200 C-24 197.36 -24 194.72 -24 192 C-29.28 192 -34.56 192 -40 192 C-40 189.36 -40 186.72 -40 184 C-42.64 184 -45.28 184 -48 184 C-48 181.36 -48 178.72 -48 176 C-50.64 176 -53.28 176 -56 176 C-56 173.36 -56 170.72 -56 168 C-58.64 168 -61.28 168 -64 168 C-64 162.72 -64 157.44 -64 152 C-66.64 152 -69.28 152 -72 152 C-72 146.72 -72 141.44 -72 136 C-74.64 136 -77.28 136 -80 136 C-80 114.88 -80 93.76 -80 72 C-77.36 72 -74.72 72 -72 72 C-72 66.72 -72 61.44 -72 56 C-69.36 56 -66.72 56 -64 56 C-64 50.72 -64 45.44 -64 40 C-61.36 40 -58.72 40 -56 40 C-56 37.36 -56 34.72 -56 32 C-53.36 32 -50.72 32 -48 32 C-48 29.36 -48 26.72 -48 24 C-45.36 24 -42.72 24 -40 24 C-40 21.36 -40 18.72 -40 16 C-34.72 16 -29.44 16 -24 16 C-24 13.36 -24 10.72 -24 8 C-16.08 8 -8.16 8 0 8 C0 5.36 0 2.72 0 0 Z M120 16 C120 21.28 120 26.56 120 32 C130.56 32 141.12 32 152 32 C152 26.72 152 21.44 152 16 C141.44 16 130.88 16 120 16 Z M8 88 C8 98.56 8 109.12 8 120 C18.56 120 29.12 120 40 120 C40 109.44 40 98.88 40 88 C29.44 88 18.88 88 8 88 Z " fill="#C0C0C0" transform="translate(222,146)"/>
<path d="M0 0 C15.84 0 31.68 0 48 0 C48 10.56 48 21.12 48 32 C53.28 32 58.56 32 64 32 C64 50.48 64 68.96 64 88 C48.16 88 32.32 88 16 88 C16 103.84 16 119.68 16 136 C13.36 136 10.72 136 8 136 C8 120.16 8 104.32 8 88 C-5.2 88 -18.4 88 -32 88 C-32 90.64 -32 93.28 -32 96 C-34.64 96 -37.28 96 -40 96 C-40 98.64 -40 101.28 -40 104 C-45.28 104 -50.56 104 -56 104 C-56 98.72 -56 93.44 -56 88 C-58.64 88 -61.28 88 -64 88 C-64 98.56 -64 109.12 -64 120 C-66.64 120 -69.28 120 -72 120 C-72 109.44 -72 98.88 -72 88 C-82.56 88 -93.12 88 -104 88 C-104 85.36 -104 82.72 -104 80 C-93.44 80 -82.88 80 -72 80 C-72 64.16 -72 48.32 -72 32 C-56.16 32 -40.32 32 -24 32 C-24 29.36 -24 26.72 -24 24 C-21.36 24 -18.72 24 -16 24 C-16 26.64 -16 29.28 -16 32 C-10.72 32 -5.44 32 0 32 C0 21.44 0 10.88 0 0 Z M8 16 C8 21.28 8 26.56 8 32 C18.56 32 29.12 32 40 32 C40 26.72 40 21.44 40 16 C29.44 16 18.88 16 8 16 Z " fill="#000000" transform="translate(334,146)"/>
<path d="M0 0 C2.64 0 5.28 0 8 0 C8 5.28 8 10.56 8 16 C13.28 16 18.56 16 24 16 C24 13.36 24 10.72 24 8 C26.64 8 29.28 8 32 8 C32 5.36 32 2.72 32 0 C45.2 0 58.4 0 72 0 C72 21.12 72 42.24 72 64 C69.36 64 66.72 64 64 64 C64 69.28 64 74.56 64 80 C61.36 80 58.72 80 56 80 C56 82.64 56 85.28 56 88 C53.36 88 50.72 88 48 88 C48 90.64 48 93.28 48 96 C45.36 96 42.72 96 40 96 C40 98.64 40 101.28 40 104 C34.72 104 29.44 104 24 104 C24 106.64 24 109.28 24 112 C16.08 112 8.16 112 0 112 C0 114.64 0 117.28 0 120 C-18.48 120 -36.96 120 -56 120 C-56 117.36 -56 114.72 -56 112 C-40.16 112 -24.32 112 -8 112 C-8 104.08 -8 96.16 -8 88 C-10.64 88 -13.28 88 -16 88 C-16 74.8 -16 61.6 -16 48 C-23.92 48 -31.84 48 -40 48 C-40 42.72 -40 37.44 -40 32 C-26.8 32 -13.6 32 0 32 C0 21.44 0 10.88 0 0 Z " fill="#C0C0C0" transform="translate(270,234)"/>
<path d="M0 0 C15.84 0 31.68 0 48 0 C48 2.64 48 5.28 48 8 C55.92 8 63.84 8 72 8 C72 10.64 72 13.28 72 16 C77.28 16 82.56 16 88 16 C88 21.28 88 26.56 88 32 C72.16 32 56.32 32 40 32 C40 47.84 40 63.68 40 80 C24.16 80 8.32 80 -8 80 C-8 77.36 -8 74.72 -8 72 C-10.64 72 -13.28 72 -16 72 C-16 69.36 -16 66.72 -16 64 C-18.64 64 -21.28 64 -24 64 C-24 61.36 -24 58.72 -24 56 C-26.64 56 -29.28 56 -32 56 C-32 53.36 -32 50.72 -32 48 C-34.64 48 -37.28 48 -40 48 C-40 45.36 -40 42.72 -40 40 C-42.64 40 -45.28 40 -48 40 C-48 34.72 -48 29.44 -48 24 C-45.36 24 -42.72 24 -40 24 C-40 21.36 -40 18.72 -40 16 C-34.72 16 -29.44 16 -24 16 C-24 13.36 -24 10.72 -24 8 C-16.08 8 -8.16 8 0 8 C0 5.36 0 2.72 0 0 Z " fill="#C0C0C0" transform="translate(222,146)"/>
<path d="M0 0 C7.92 0 15.84 0 24 0 C24 5.28 24 10.56 24 16 C31.92 16 39.84 16 48 16 C48 29.2 48 42.4 48 56 C50.64 56 53.28 56 56 56 C56 63.92 56 71.84 56 80 C34.88 80 13.76 80 -8 80 C-8 77.36 -8 74.72 -8 72 C-13.28 72 -18.56 72 -24 72 C-24 69.36 -24 66.72 -24 64 C-26.64 64 -29.28 64 -32 64 C-32 61.36 -32 58.72 -32 56 C-34.64 56 -37.28 56 -40 56 C-40 50.72 -40 45.44 -40 40 C-37.36 40 -34.72 40 -32 40 C-32 37.36 -32 34.72 -32 32 C-29.36 32 -26.72 32 -24 32 C-24 29.36 -24 26.72 -24 24 C-21.36 24 -18.72 24 -16 24 C-16 21.36 -16 18.72 -16 16 C-13.36 16 -10.72 16 -8 16 C-8 13.36 -8 10.72 -8 8 C-5.36 8 -2.72 8 0 8 C0 5.36 0 2.72 0 0 Z " fill="#C0C0C0" transform="translate(206,266)"/>
<path d="M0 0 C7.92 0 15.84 0 24 0 C24 7.92 24 15.84 24 24 C26.64 24 29.28 24 32 24 C32 39.84 32 55.68 32 72 C26.72 72 21.44 72 16 72 C16 69.36 16 66.72 16 64 C13.36 64 10.72 64 8 64 C8 61.36 8 58.72 8 56 C5.36 56 2.72 56 0 56 C0 53.36 0 50.72 0 48 C-2.64 48 -5.28 48 -8 48 C-8 45.36 -8 42.72 -8 40 C-10.64 40 -13.28 40 -16 40 C-16 37.36 -16 34.72 -16 32 C-18.64 32 -21.28 32 -24 32 C-24 26.72 -24 21.44 -24 16 C-21.36 16 -18.72 16 -16 16 C-16 13.36 -16 10.72 -16 8 C-10.72 8 -5.44 8 0 8 C0 5.36 0 2.72 0 0 Z " fill="#00FF00" transform="translate(198,154)"/>
<path d="M0 0 C10.56 0 21.12 0 32 0 C32 13.2 32 26.4 32 40 C34.64 40 37.28 40 40 40 C40 45.28 40 50.56 40 56 C42.64 56 45.28 56 48 56 C48 61.28 48 66.56 48 72 C53.28 72 58.56 72 64 72 C64 74.64 64 77.28 64 80 C56.08 80 48.16 80 40 80 C40 82.64 40 85.28 40 88 C21.52 88 3.04 88 -16 88 C-16 85.36 -16 82.72 -16 80 C-0.16 80 15.68 80 32 80 C32 72.08 32 64.16 32 56 C29.36 56 26.72 56 24 56 C24 42.8 24 29.6 24 16 C16.08 16 8.16 16 0 16 C0 10.72 0 5.44 0 0 Z " fill="#00FF00" transform="translate(230,266)"/>
<path d="M0 0 C2.64 0 5.28 0 8 0 C8 10.56 8 21.12 8 32 C10.64 32 13.28 32 16 32 C16 34.64 16 37.28 16 40 C18.64 40 21.28 40 24 40 C24 42.64 24 45.28 24 48 C26.64 48 29.28 48 32 48 C32 50.64 32 53.28 32 56 C34.64 56 37.28 56 40 56 C40 58.64 40 61.28 40 64 C42.64 64 45.28 64 48 64 C48 66.64 48 69.28 48 72 C45.36 72 42.72 72 40 72 C40 74.64 40 77.28 40 80 C37.36 80 34.72 80 32 80 C32 82.64 32 85.28 32 88 C29.36 88 26.72 88 24 88 C24 90.64 24 93.28 24 96 C21.36 96 18.72 96 16 96 C16 90.72 16 85.44 16 80 C13.36 80 10.72 80 8 80 C8 74.72 8 69.44 8 64 C5.36 64 2.72 64 0 64 C0 42.88 0 21.76 0 0 Z " fill="#808080" transform="translate(142,218)"/>
<path d="M0 0 C2.64 0 5.28 0 8 0 C8 2.64 8 5.28 8 8 C10.64 8 13.28 8 16 8 C16 10.64 16 13.28 16 16 C18.64 16 21.28 16 24 16 C24 18.64 24 21.28 24 24 C26.64 24 29.28 24 32 24 C32 26.64 32 29.28 32 32 C34.64 32 37.28 32 40 32 C40 34.64 40 37.28 40 40 C42.64 40 45.28 40 48 40 C48 42.64 48 45.28 48 48 C50.64 48 53.28 48 56 48 C56 50.64 56 53.28 56 56 C53.36 56 50.72 56 48 56 C48 58.64 48 61.28 48 64 C37.44 64 26.88 64 16 64 C16 58.72 16 53.44 16 48 C13.36 48 10.72 48 8 48 C8 42.72 8 37.44 8 32 C5.36 32 2.72 32 0 32 C0 21.44 0 10.88 0 0 Z " fill="#00FFFF" transform="translate(262,274)"/>
<path d="M0 0 C2.64 0 5.28 0 8 0 C8 2.64 8 5.28 8 8 C10.64 8 13.28 8 16 8 C16 10.64 16 13.28 16 16 C18.64 16 21.28 16 24 16 C24 18.64 24 21.28 24 24 C26.64 24 29.28 24 32 24 C32 26.64 32 29.28 32 32 C34.64 32 37.28 32 40 32 C40 34.64 40 37.28 40 40 C42.64 40 45.28 40 48 40 C48 42.64 48 45.28 48 48 C53.28 48 58.56 48 64 48 C64 61.2 64 74.4 64 88 C56.08 88 48.16 88 40 88 C40 85.36 40 82.72 40 80 C42.64 80 45.28 80 48 80 C48 72.08 48 64.16 48 56 C45.36 56 42.72 56 40 56 C40 53.36 40 50.72 40 48 C37.36 48 34.72 48 32 48 C32 45.36 32 42.72 32 40 C29.36 40 26.72 40 24 40 C24 37.36 24 34.72 24 32 C21.36 32 18.72 32 16 32 C16 29.36 16 26.72 16 24 C13.36 24 10.72 24 8 24 C8 21.36 8 18.72 8 16 C5.36 16 2.72 16 0 16 C0 18.64 0 21.28 0 24 C-2.64 24 -5.28 24 -8 24 C-8 18.72 -8 13.44 -8 8 C-5.36 8 -2.72 8 0 8 C0 5.36 0 2.72 0 0 Z " fill="#C0C0C0" transform="translate(166,178)"/>
<path d="M0 0 C7.92 0 15.84 0 24 0 C24 21.12 24 42.24 24 64 C18.72 64 13.44 64 8 64 C8 50.8 8 37.6 8 24 C5.36 24 2.72 24 0 24 C0 16.08 0 8.16 0 0 Z " fill="#FFFF00" transform="translate(222,154)"/>
<path d="M0 0 C5.28 0 10.56 0 16 0 C16 5.28 16 10.56 16 16 C18.64 16 21.28 16 24 16 C24 29.2 24 42.4 24 56 C21.36 56 18.72 56 16 56 C16 53.36 16 50.72 16 48 C13.36 48 10.72 48 8 48 C8 42.72 8 37.44 8 32 C5.36 32 2.72 32 0 32 C0 26.72 0 21.44 0 16 C-2.64 16 -5.28 16 -8 16 C-8 13.36 -8 10.72 -8 8 C-5.36 8 -2.72 8 0 8 C0 5.36 0 2.72 0 0 Z " fill="#00FFFF" transform="translate(206,162)"/>
<path d="M0 0 C2.64 0 5.28 0 8 0 C8 13.2 8 26.4 8 40 C10.64 40 13.28 40 16 40 C16 47.92 16 55.84 16 64 C8.08 64 0.16 64 -8 64 C-8 61.36 -8 58.72 -8 56 C-5.36 56 -2.72 56 0 56 C0 53.36 0 50.72 0 48 C-2.64 48 -5.28 48 -8 48 C-8 45.36 -8 42.72 -8 40 C-5.36 40 -2.72 40 0 40 C0 37.36 0 34.72 0 32 C-2.64 32 -5.28 32 -8 32 C-8 29.36 -8 26.72 -8 24 C-5.36 24 -2.72 24 0 24 C0 21.36 0 18.72 0 16 C-2.64 16 -5.28 16 -8 16 C-8 13.36 -8 10.72 -8 8 C-5.36 8 -2.72 8 0 8 C0 5.36 0 2.72 0 0 Z " fill="#FFFF00" transform="translate(246,282)"/>
<path d="M0 0 C5.28 0 10.56 0 16 0 C16 5.28 16 10.56 16 16 C13.36 16 10.72 16 8 16 C8 18.64 8 21.28 8 24 C5.36 24 2.72 24 0 24 C0 26.64 0 29.28 0 32 C-2.64 32 -5.28 32 -8 32 C-8 34.64 -8 37.28 -8 40 C-10.64 40 -13.28 40 -16 40 C-16 42.64 -16 45.28 -16 48 C-18.64 48 -21.28 48 -24 48 C-24 45.36 -24 42.72 -24 40 C-26.64 40 -29.28 40 -32 40 C-32 37.36 -32 34.72 -32 32 C-29.36 32 -26.72 32 -24 32 C-24 29.36 -24 26.72 -24 24 C-21.36 24 -18.72 24 -16 24 C-16 21.36 -16 18.72 -16 16 C-13.36 16 -10.72 16 -8 16 C-8 13.36 -8 10.72 -8 8 C-5.36 8 -2.72 8 0 8 C0 5.36 0 2.72 0 0 Z " fill="#C0C0C0" transform="translate(206,266)"/>
<path d="M0 0 C29.04 0 58.08 0 88 0 C88 2.64 88 5.28 88 8 C58.96 8 29.92 8 0 8 C0 5.36 0 2.72 0 0 Z " fill="#FFFFFF" transform="translate(302,218)"/>
<path d="M0 0 C10.56 0 21.12 0 32 0 C32 7.92 32 15.84 32 24 C29.36 24 26.72 24 24 24 C24 21.36 24 18.72 24 16 C16.08 16 8.16 16 0 16 C0 10.72 0 5.44 0 0 Z " fill="#808080" transform="translate(230,266)"/>
<path d="M0 0 C5.28 0 10.56 0 16 0 C16 10.56 16 21.12 16 32 C8.08 32 0.16 32 -8 32 C-8 29.36 -8 26.72 -8 24 C-5.36 24 -2.72 24 0 24 C0 16.08 0 8.16 0 0 Z " fill="#808080" transform="translate(214,234)"/>
<path d="M0 0 C18.48 0 36.96 0 56 0 C56 2.64 56 5.28 56 8 C37.52 8 19.04 8 0 8 C0 5.36 0 2.72 0 0 Z " fill="#000000" transform="translate(214,346)"/>
<path d="M0 0 C2.64 0 5.28 0 8 0 C8 2.64 8 5.28 8 8 C10.64 8 13.28 8 16 8 C16 10.64 16 13.28 16 16 C18.64 16 21.28 16 24 16 C24 18.64 24 21.28 24 24 C21.36 24 18.72 24 16 24 C16 26.64 16 29.28 16 32 C13.36 32 10.72 32 8 32 C8 26.72 8 21.44 8 16 C5.36 16 2.72 16 0 16 C0 10.72 0 5.44 0 0 Z " fill="#808080" transform="translate(150,282)"/>
<path d="M0 0 C2.64 0 5.28 0 8 0 C8 2.64 8 5.28 8 8 C10.64 8 13.28 8 16 8 C16 10.64 16 13.28 16 16 C18.64 16 21.28 16 24 16 C24 18.64 24 21.28 24 24 C18.72 24 13.44 24 8 24 C8 21.36 8 18.72 8 16 C2.72 16 -2.56 16 -8 16 C-8 13.36 -8 10.72 -8 8 C-5.36 8 -2.72 8 0 8 C0 5.36 0 2.72 0 0 Z " fill="#00FFFF" transform="translate(166,194)"/>
<path d="M0 0 C7.92 0 15.84 0 24 0 C24 2.64 24 5.28 24 8 C18.72 8 13.44 8 8 8 C8 10.64 8 13.28 8 16 C0.08 16 -7.84 16 -16 16 C-16 13.36 -16 10.72 -16 8 C-10.72 8 -5.44 8 0 8 C0 5.36 0 2.72 0 0 Z " fill="#808080" transform="translate(198,154)"/>
<path d="M0 0 C15.84 0 31.68 0 48 0 C48 2.64 48 5.28 48 8 C32.16 8 16.32 8 0 8 C0 5.36 0 2.72 0 0 Z " fill="#808080" transform="translate(222,146)"/>
<path d="M0 0 C5.28 0 10.56 0 16 0 C16 5.28 16 10.56 16 16 C10.72 16 5.44 16 0 16 C0 10.72 0 5.44 0 0 Z " fill="#C0C0C0" transform="translate(166,306)"/>
<path d="M0 0 C10.56 0 21.12 0 32 0 C32 2.64 32 5.28 32 8 C21.44 8 10.88 8 0 8 C0 5.36 0 2.72 0 0 Z " fill="#000000" transform="translate(230,266)"/>
<path d="M0 0 C2.64 0 5.28 0 8 0 C8 10.56 8 21.12 8 32 C5.36 32 2.72 32 0 32 C0 21.44 0 10.88 0 0 Z " fill="#808080" transform="translate(270,234)"/>
<path d="M0 0 C2.64 0 5.28 0 8 0 C8 10.56 8 21.12 8 32 C5.36 32 2.72 32 0 32 C0 21.44 0 10.88 0 0 Z " fill="#000000" transform="translate(222,234)"/>
<path d="M0 0 C10.56 0 21.12 0 32 0 C32 2.64 32 5.28 32 8 C21.44 8 10.88 8 0 8 C0 5.36 0 2.72 0 0 Z " fill="#808080" transform="translate(230,218)"/>
<path d="M0 0 C10.56 0 21.12 0 32 0 C32 2.64 32 5.28 32 8 C21.44 8 10.88 8 0 8 C0 5.36 0 2.72 0 0 Z " fill="#FFFFFF" transform="translate(342,186)"/>
<path d="M0 0 C10.56 0 21.12 0 32 0 C32 2.64 32 5.28 32 8 C21.44 8 10.88 8 0 8 C0 5.36 0 2.72 0 0 Z " fill="#FFFFFF" transform="translate(302,186)"/>
<path d="M0 0 C7.92 0 15.84 0 24 0 C24 2.64 24 5.28 24 8 C16.08 8 8.16 8 0 8 C0 5.36 0 2.72 0 0 Z " fill="#000000" transform="translate(270,338)"/>
<path d="M0 0 C2.64 0 5.28 0 8 0 C8 2.64 8 5.28 8 8 C10.64 8 13.28 8 16 8 C16 10.64 16 13.28 16 16 C10.72 16 5.44 16 0 16 C0 10.72 0 5.44 0 0 Z " fill="#C0C0C0" transform="translate(278,322)"/>
<path d="M0 0 C7.92 0 15.84 0 24 0 C24 2.64 24 5.28 24 8 C16.08 8 8.16 8 0 8 C0 5.36 0 2.72 0 0 Z " fill="#FFFFFF" transform="translate(270,218)"/>
<path d="M0 0 C7.92 0 15.84 0 24 0 C24 2.64 24 5.28 24 8 C16.08 8 8.16 8 0 8 C0 5.36 0 2.72 0 0 Z " fill="#FFFFFF" transform="translate(270,202)"/>
<path d="M0 0 C7.92 0 15.84 0 24 0 C24 2.64 24 5.28 24 8 C16.08 8 8.16 8 0 8 C0 5.36 0 2.72 0 0 Z " fill="#FFFFFF" transform="translate(270,186)"/>
<path d="M0 0 C7.92 0 15.84 0 24 0 C24 2.64 24 5.28 24 8 C16.08 8 8.16 8 0 8 C0 5.36 0 2.72 0 0 Z " fill="#808080" transform="translate(270,154)"/>
<path d="M0 0 C5.28 0 10.56 0 16 0 C16 2.64 16 5.28 16 8 C10.72 8 5.44 8 0 8 C0 5.36 0 2.72 0 0 Z " fill="#808080" transform="translate(198,338)"/>
<path d="M0 0 C5.28 0 10.56 0 16 0 C16 2.64 16 5.28 16 8 C10.72 8 5.44 8 0 8 C0 5.36 0 2.72 0 0 Z " fill="#000000" transform="translate(294,330)"/>
<path d="M0 0 C5.28 0 10.56 0 16 0 C16 2.64 16 5.28 16 8 C10.72 8 5.44 8 0 8 C0 5.36 0 2.72 0 0 Z " fill="#808080" transform="translate(182,330)"/>
<path d="M0 0 C2.64 0 5.28 0 8 0 C8 5.28 8 10.56 8 16 C5.36 16 2.72 16 0 16 C0 10.72 0 5.44 0 0 Z " fill="#C0C0C0" transform="translate(270,306)"/>
<path d="M0 0 C2.64 0 5.28 0 8 0 C8 5.28 8 10.56 8 16 C5.36 16 2.72 16 0 16 C0 10.72 0 5.44 0 0 Z " fill="#000000" transform="translate(326,298)"/>
<path d="M0 0 C2.64 0 5.28 0 8 0 C8 5.28 8 10.56 8 16 C5.36 16 2.72 16 0 16 C0 10.72 0 5.44 0 0 Z " fill="#C0C0C0" transform="translate(262,290)"/>
<path d="M0 0 C2.64 0 5.28 0 8 0 C8 5.28 8 10.56 8 16 C5.36 16 2.72 16 0 16 C0 10.72 0 5.44 0 0 Z " fill="#000000" transform="translate(334,282)"/>
<path d="M0 0 C5.28 0 10.56 0 16 0 C16 2.64 16 5.28 16 8 C10.72 8 5.44 8 0 8 C0 5.36 0 2.72 0 0 Z " fill="#FFFFFF" transform="translate(342,202)"/>
<path d="M0 0 C5.28 0 10.56 0 16 0 C16 2.64 16 5.28 16 8 C10.72 8 5.44 8 0 8 C0 5.36 0 2.72 0 0 Z " fill="#FFFFFF" transform="translate(302,202)"/>
<path d="M0 0 C2.64 0 5.28 0 8 0 C8 5.28 8 10.56 8 16 C5.36 16 2.72 16 0 16 C0 10.72 0 5.44 0 0 Z " fill="#808080" transform="translate(150,202)"/>
<path d="M0 0 C2.64 0 5.28 0 8 0 C8 5.28 8 10.56 8 16 C5.36 16 2.72 16 0 16 C0 10.72 0 5.44 0 0 Z " fill="#808080" transform="translate(158,186)"/>
<path d="M0 0 C5.28 0 10.56 0 16 0 C16 2.64 16 5.28 16 8 C10.72 8 5.44 8 0 8 C0 5.36 0 2.72 0 0 Z " fill="#000000" transform="translate(294,162)"/>
<path d="M0 0 C2.64 0 5.28 0 8 0 C8 2.64 8 5.28 8 8 C5.36 8 2.72 8 0 8 C0 5.36 0 2.72 0 0 Z " fill="#808080" transform="translate(286,330)"/>
<path d="M0 0 C2.64 0 5.28 0 8 0 C8 2.64 8 5.28 8 8 C5.36 8 2.72 8 0 8 C0 5.36 0 2.72 0 0 Z " fill="#000000" transform="translate(310,322)"/>
<path d="M0 0 C2.64 0 5.28 0 8 0 C8 2.64 8 5.28 8 8 C5.36 8 2.72 8 0 8 C0 5.36 0 2.72 0 0 Z " fill="#808080" transform="translate(174,322)"/>
<path d="M0 0 C2.64 0 5.28 0 8 0 C8 2.64 8 5.28 8 8 C5.36 8 2.72 8 0 8 C0 5.36 0 2.72 0 0 Z " fill="#000000" transform="translate(318,314)"/>
<path d="M0 0 C2.64 0 5.28 0 8 0 C8 2.64 8 5.28 8 8 C5.36 8 2.72 8 0 8 C0 5.36 0 2.72 0 0 Z " fill="#FFFFFF" transform="translate(174,314)"/>
<path d="M0 0 C2.64 0 5.28 0 8 0 C8 2.64 8 5.28 8 8 C5.36 8 2.72 8 0 8 C0 5.36 0 2.72 0 0 Z " fill="#808080" transform="translate(166,314)"/>
<path d="M0 0 C2.64 0 5.28 0 8 0 C8 2.64 8 5.28 8 8 C5.36 8 2.72 8 0 8 C0 5.36 0 2.72 0 0 Z " fill="#FFFFFF" transform="translate(182,306)"/>
<path d="M0 0 C2.64 0 5.28 0 8 0 C8 2.64 8 5.28 8 8 C5.36 8 2.72 8 0 8 C0 5.36 0 2.72 0 0 Z " fill="#FFFFFF" transform="translate(166,306)"/>
<path d="M0 0 C2.64 0 5.28 0 8 0 C8 2.64 8 5.28 8 8 C5.36 8 2.72 8 0 8 C0 5.36 0 2.72 0 0 Z " fill="#FFFFFF" transform="translate(190,298)"/>
<path d="M0 0 C2.64 0 5.28 0 8 0 C8 2.64 8 5.28 8 8 C5.36 8 2.72 8 0 8 C0 5.36 0 2.72 0 0 Z " fill="#FFFFFF" transform="translate(174,298)"/>
<path d="M0 0 C2.64 0 5.28 0 8 0 C8 2.64 8 5.28 8 8 C5.36 8 2.72 8 0 8 C0 5.36 0 2.72 0 0 Z " fill="#FFFFFF" transform="translate(198,290)"/>
<path d="M0 0 C2.64 0 5.28 0 8 0 C8 2.64 8 5.28 8 8 C5.36 8 2.72 8 0 8 C0 5.36 0 2.72 0 0 Z " fill="#FFFFFF" transform="translate(182,290)"/>
<path d="M0 0 C2.64 0 5.28 0 8 0 C8 2.64 8 5.28 8 8 C5.36 8 2.72 8 0 8 C0 5.36 0 2.72 0 0 Z " fill="#808080" transform="translate(174,290)"/>
<path d="M0 0 C2.64 0 5.28 0 8 0 C8 2.64 8 5.28 8 8 C5.36 8 2.72 8 0 8 C0 5.36 0 2.72 0 0 Z " fill="#C0C0C0" transform="translate(166,290)"/>
<path d="M0 0 C2.64 0 5.28 0 8 0 C8 2.64 8 5.28 8 8 C5.36 8 2.72 8 0 8 C0 5.36 0 2.72 0 0 Z " fill="#C0C0C0" transform="translate(254,282)"/>
<path d="M0 0 C2.64 0 5.28 0 8 0 C8 2.64 8 5.28 8 8 C5.36 8 2.72 8 0 8 C0 5.36 0 2.72 0 0 Z " fill="#FFFFFF" transform="translate(206,282)"/>
<path d="M0 0 C2.64 0 5.28 0 8 0 C8 2.64 8 5.28 8 8 C5.36 8 2.72 8 0 8 C0 5.36 0 2.72 0 0 Z " fill="#FFFFFF" transform="translate(190,282)"/>
<path d="M0 0 C2.64 0 5.28 0 8 0 C8 2.64 8 5.28 8 8 C5.36 8 2.72 8 0 8 C0 5.36 0 2.72 0 0 Z " fill="#808080" transform="translate(182,282)"/>
<path d="M0 0 C2.64 0 5.28 0 8 0 C8 2.64 8 5.28 8 8 C5.36 8 2.72 8 0 8 C0 5.36 0 2.72 0 0 Z " fill="#C0C0C0" transform="translate(174,282)"/>
<path d="M0 0 C2.64 0 5.28 0 8 0 C8 2.64 8 5.28 8 8 C5.36 8 2.72 8 0 8 C0 5.36 0 2.72 0 0 Z " fill="#808080" transform="translate(166,282)"/>
<path d="M0 0 C2.64 0 5.28 0 8 0 C8 2.64 8 5.28 8 8 C5.36 8 2.72 8 0 8 C0 5.36 0 2.72 0 0 Z " fill="#C0C0C0" transform="translate(158,282)"/>
<path d="M0 0 C2.64 0 5.28 0 8 0 C8 2.64 8 5.28 8 8 C5.36 8 2.72 8 0 8 C0 5.36 0 2.72 0 0 Z " fill="#FFFFFF" transform="translate(214,274)"/>
<path d="M0 0 C2.64 0 5.28 0 8 0 C8 2.64 8 5.28 8 8 C5.36 8 2.72 8 0 8 C0 5.36 0 2.72 0 0 Z " fill="#FFFFFF" transform="translate(198,274)"/>
<path d="M0 0 C2.64 0 5.28 0 8 0 C8 2.64 8 5.28 8 8 C5.36 8 2.72 8 0 8 C0 5.36 0 2.72 0 0 Z " fill="#808080" transform="translate(190,274)"/>
<path d="M0 0 C2.64 0 5.28 0 8 0 C8 2.64 8 5.28 8 8 C5.36 8 2.72 8 0 8 C0 5.36 0 2.72 0 0 Z " fill="#C0C0C0" transform="translate(182,274)"/>
<path d="M0 0 C2.64 0 5.28 0 8 0 C8 2.64 8 5.28 8 8 C5.36 8 2.72 8 0 8 C0 5.36 0 2.72 0 0 Z " fill="#808080" transform="translate(174,274)"/>
<path d="M0 0 C2.64 0 5.28 0 8 0 C8 2.64 8 5.28 8 8 C5.36 8 2.72 8 0 8 C0 5.36 0 2.72 0 0 Z " fill="#C0C0C0" transform="translate(166,274)"/>
<path d="M0 0 C2.64 0 5.28 0 8 0 C8 2.64 8 5.28 8 8 C5.36 8 2.72 8 0 8 C0 5.36 0 2.72 0 0 Z " fill="#808080" transform="translate(158,274)"/>
<path d="M0 0 C2.64 0 5.28 0 8 0 C8 2.64 8 5.28 8 8 C5.36 8 2.72 8 0 8 C0 5.36 0 2.72 0 0 Z " fill="#C0C0C0" transform="translate(150,274)"/>
<path d="M0 0 C2.64 0 5.28 0 8 0 C8 2.64 8 5.28 8 8 C5.36 8 2.72 8 0 8 C0 5.36 0 2.72 0 0 Z " fill="#808080" transform="translate(262,266)"/>
<path d="M0 0 C2.64 0 5.28 0 8 0 C8 2.64 8 5.28 8 8 C5.36 8 2.72 8 0 8 C0 5.36 0 2.72 0 0 Z " fill="#808080" transform="translate(222,266)"/>
<path d="M0 0 C2.64 0 5.28 0 8 0 C8 2.64 8 5.28 8 8 C5.36 8 2.72 8 0 8 C0 5.36 0 2.72 0 0 Z " fill="#FFFFFF" transform="translate(206,266)"/>
<path d="M0 0 C2.64 0 5.28 0 8 0 C8 2.64 8 5.28 8 8 C5.36 8 2.72 8 0 8 C0 5.36 0 2.72 0 0 Z " fill="#808080" transform="translate(198,266)"/>
<path d="M0 0 C2.64 0 5.28 0 8 0 C8 2.64 8 5.28 8 8 C5.36 8 2.72 8 0 8 C0 5.36 0 2.72 0 0 Z " fill="#C0C0C0" transform="translate(190,266)"/>
<path d="M0 0 C2.64 0 5.28 0 8 0 C8 2.64 8 5.28 8 8 C5.36 8 2.72 8 0 8 C0 5.36 0 2.72 0 0 Z " fill="#808080" transform="translate(182,266)"/>
<path d="M0 0 C2.64 0 5.28 0 8 0 C8 2.64 8 5.28 8 8 C5.36 8 2.72 8 0 8 C0 5.36 0 2.72 0 0 Z " fill="#C0C0C0" transform="translate(174,266)"/>
<path d="M0 0 C2.64 0 5.28 0 8 0 C8 2.64 8 5.28 8 8 C5.36 8 2.72 8 0 8 C0 5.36 0 2.72 0 0 Z " fill="#808080" transform="translate(166,266)"/>
<path d="M0 0 C2.64 0 5.28 0 8 0 C8 2.64 8 5.28 8 8 C5.36 8 2.72 8 0 8 C0 5.36 0 2.72 0 0 Z " fill="#C0C0C0" transform="translate(158,266)"/>
<path d="M0 0 C2.64 0 5.28 0 8 0 C8 2.64 8 5.28 8 8 C5.36 8 2.72 8 0 8 C0 5.36 0 2.72 0 0 Z " fill="#C0C0C0" transform="translate(198,258)"/>
<path d="M0 0 C2.64 0 5.28 0 8 0 C8 2.64 8 5.28 8 8 C5.36 8 2.72 8 0 8 C0 5.36 0 2.72 0 0 Z " fill="#808080" transform="translate(190,258)"/>
<path d="M0 0 C2.64 0 5.28 0 8 0 C8 2.64 8 5.28 8 8 C5.36 8 2.72 8 0 8 C0 5.36 0 2.72 0 0 Z " fill="#C0C0C0" transform="translate(182,258)"/>
<path d="M0 0 C2.64 0 5.28 0 8 0 C8 2.64 8 5.28 8 8 C5.36 8 2.72 8 0 8 C0 5.36 0 2.72 0 0 Z " fill="#808080" transform="translate(174,258)"/>
<path d="M0 0 C2.64 0 5.28 0 8 0 C8 2.64 8 5.28 8 8 C5.36 8 2.72 8 0 8 C0 5.36 0 2.72 0 0 Z " fill="#C0C0C0" transform="translate(166,258)"/>
<path d="M0 0 C2.64 0 5.28 0 8 0 C8 2.64 8 5.28 8 8 C5.36 8 2.72 8 0 8 C0 5.36 0 2.72 0 0 Z " fill="#C0C0C0" transform="translate(150,258)"/>
<path d="M0 0 C2.64 0 5.28 0 8 0 C8 2.64 8 5.28 8 8 C5.36 8 2.72 8 0 8 C0 5.36 0 2.72 0 0 Z " fill="#808080" transform="translate(198,250)"/>
<path d="M0 0 C2.64 0 5.28 0 8 0 C8 2.64 8 5.28 8 8 C5.36 8 2.72 8 0 8 C0 5.36 0 2.72 0 0 Z " fill="#808080" transform="translate(182,250)"/>
<path d="M0 0 C2.64 0 5.28 0 8 0 C8 2.64 8 5.28 8 8 C5.36 8 2.72 8 0 8 C0 5.36 0 2.72 0 0 Z " fill="#808080" transform="translate(166,250)"/>
<path d="M0 0 C2.64 0 5.28 0 8 0 C8 2.64 8 5.28 8 8 C5.36 8 2.72 8 0 8 C0 5.36 0 2.72 0 0 Z " fill="#00FFFF" transform="translate(206,234)"/>
<path d="M0 0 C2.64 0 5.28 0 8 0 C8 2.64 8 5.28 8 8 C5.36 8 2.72 8 0 8 C0 5.36 0 2.72 0 0 Z " fill="#808080" transform="translate(222,226)"/>
<path d="M0 0 C2.64 0 5.28 0 8 0 C8 2.64 8 5.28 8 8 C5.36 8 2.72 8 0 8 C0 5.36 0 2.72 0 0 Z " fill="#00FFFF" transform="translate(198,226)"/>
<path d="M0 0 C2.64 0 5.28 0 8 0 C8 2.64 8 5.28 8 8 C5.36 8 2.72 8 0 8 C0 5.36 0 2.72 0 0 Z " fill="#00FFFF" transform="translate(190,218)"/>
<path d="M0 0 C2.64 0 5.28 0 8 0 C8 2.64 8 5.28 8 8 C5.36 8 2.72 8 0 8 C0 5.36 0 2.72 0 0 Z " fill="#FFFFFF" transform="translate(382,202)"/>
<path d="M0 0 C2.64 0 5.28 0 8 0 C8 2.64 8 5.28 8 8 C5.36 8 2.72 8 0 8 C0 5.36 0 2.72 0 0 Z " fill="#FFFFFF" transform="translate(382,186)"/>
<path d="M0 0 C2.64 0 5.28 0 8 0 C8 2.64 8 5.28 8 8 C5.36 8 2.72 8 0 8 C0 5.36 0 2.72 0 0 Z " fill="#808080" transform="translate(166,178)"/>
<path d="M0 0 C2.64 0 5.28 0 8 0 C8 2.64 8 5.28 8 8 C5.36 8 2.72 8 0 8 C0 5.36 0 2.72 0 0 Z " fill="#808080" transform="translate(174,170)"/>
</svg>
