<?xml version="1.0" encoding="UTF-8"?>
<svg version="1.1" xmlns="http://www.w3.org/2000/svg" width="100" height="100">
<path d="M0 0 C1.175625 0.63615234 1.175625 0.63615234 2.375 1.28515625 C12.61047252 7.49214043 20.17391486 17.36200666 23.55566406 28.89501953 C26.38963159 42.32055142 24.2074734 55.78548288 16.8125 67.1875 C9.99308494 76.30901059 1.82913708 82.6304709 -9.28515625 85.61328125 C-24.28606167 87.75010087 -37.52106161 85.89545946 -50 77 C-58.10133207 70.630001 -63.79081231 61.00940014 -66 51 C-67.40696768 36.4017212 -65.91927858 24.31838218 -56.97265625 12.3515625 C-43.48286577 -3.72933625 -19.1891657 -10.40493613 0 0 Z " fill="#F5F6FE" transform="translate(71,9)"/>
<path d="M0 0 C1.175625 0.63615234 1.175625 0.63615234 2.375 1.28515625 C12.61047252 7.49214043 20.17391486 17.36200666 23.55566406 28.89501953 C26.38963159 42.32055142 24.2074734 55.78548288 16.8125 67.1875 C9.99308494 76.30901059 1.82913708 82.6304709 -9.28515625 85.61328125 C-24.28606167 87.75010087 -37.52106161 85.89545946 -50 77 C-58.10133207 70.630001 -63.79081231 61.00940014 -66 51 C-67.40696768 36.4017212 -65.91927858 24.31838218 -56.97265625 12.3515625 C-43.48286577 -3.72933625 -19.1891657 -10.40493613 0 0 Z M-48.3125 18.375 C-52.82837238 24.07001683 -55.50391741 29.68278184 -56 37 C-56.07476562 37.81210937 -56.14953125 38.62421875 -56.2265625 39.4609375 C-56.73902484 48.87406149 -53.71394917 57.03314973 -47.8125 64.375 C-41.71864655 70.7615713 -33.58581464 75.35756369 -24.7734375 76.37109375 C-13.47187954 76.59192879 -4.06746964 73.95968978 4.25 66.0234375 C11.82172567 57.26862969 14.61019604 48.36098433 14.44140625 36.89453125 C13.39172386 27.63317426 7.9675189 19.10365985 1 13 C-15.29653848 1.86023331 -34.96754332 3.6518488 -48.3125 18.375 Z " fill="#0928F4" transform="translate(71,9)"/>
<path d="M0 0 C2.97 0 5.94 0 9 0 C9 12.87 9 25.74 9 39 C6.03 39 3.06 39 0 39 C0 26.13 0 13.26 0 0 Z " fill="#0927F5" transform="translate(57,31)"/>
<path d="M0 0 C2.97 0 5.94 0 9 0 C9 12.87 9 25.74 9 39 C6.03 39 3.06 39 0 39 C0 26.13 0 13.26 0 0 Z " fill="#0927F5" transform="translate(33,31)"/>
</svg>
