<?xml version="1.0" encoding="UTF-8"?>
<svg version="1.1" xmlns="http://www.w3.org/2000/svg" width="100" height="100">
<path d="M0 0 C1.175625 0.63615234 1.175625 0.63615234 2.375 1.28515625 C12.61047252 7.49214043 20.17391486 17.36200666 23.55566406 28.89501953 C26.38963159 42.32055142 24.2074734 55.78548288 16.8125 67.1875 C9.99308494 76.30901059 1.82913708 82.6304709 -9.28515625 85.61328125 C-24.28606167 87.75010087 -37.52106161 85.89545946 -50 77 C-58.10133207 70.630001 -63.79081231 61.00940014 -66 51 C-67.40696768 36.4017212 -65.91927858 24.31838218 -56.97265625 12.3515625 C-43.48286577 -3.72933625 -19.1891657 -10.40493613 0 0 Z " fill="#FBFBFE" transform="translate(71,9)"/>
<path d="M0 0 C1.175625 0.63615234 1.175625 0.63615234 2.375 1.28515625 C12.61047252 7.49214043 20.17391486 17.36200666 23.55566406 28.89501953 C26.38963159 42.32055142 24.2074734 55.78548288 16.8125 67.1875 C9.99308494 76.30901059 1.82913708 82.6304709 -9.28515625 85.61328125 C-24.28606167 87.75010087 -37.52106161 85.89545946 -50 77 C-58.10133207 70.630001 -63.79081231 61.00940014 -66 51 C-67.40696768 36.4017212 -65.91927858 24.31838218 -56.97265625 12.3515625 C-43.48286577 -3.72933625 -19.1891657 -10.40493613 0 0 Z M-48.3125 18.375 C-52.82837238 24.07001683 -55.50391741 29.68278184 -56 37 C-56.07476562 37.81210937 -56.14953125 38.62421875 -56.2265625 39.4609375 C-56.73902484 48.87406149 -53.71394917 57.03314973 -47.8125 64.375 C-41.71864655 70.7615713 -33.58581464 75.35756369 -24.7734375 76.37109375 C-13.47187954 76.59192879 -4.06746964 73.95968978 4.25 66.0234375 C11.82172567 57.26862969 14.61019604 48.36098433 14.44140625 36.89453125 C13.39172386 27.63317426 7.9675189 19.10365985 1 13 C-15.29653848 1.86023331 -34.96754332 3.6518488 -48.3125 18.375 Z " fill="#0928F4" transform="translate(71,9)"/>
<path d="M0 0 C10.38894357 4.89764483 20.76370116 9.78990777 31 15 C31 15.66 31 16.32 31 17 C26.74711797 19.13876546 22.49295009 21.27494273 18.23754883 23.40869141 C16.7889464 24.13551292 15.34070314 24.86305074 13.89282227 25.59130859 C11.81619926 26.63565886 9.73831426 27.67745833 7.66015625 28.71875 C7.00910416 29.04685669 6.35805206 29.37496338 5.68727112 29.7130127 C1.11387171 32 1.11387171 32 0 32 C0 21.44 0 10.88 0 0 Z " fill="#0A29F5" transform="translate(39,34)"/>
</svg>
