<?xml version="1.0" encoding="UTF-8"?>
<svg version="1.1" xmlns="http://www.w3.org/2000/svg" width="116" height="34">
<path d="M0 0 C38.28 0 76.56 0 116 0 C116 11.22 116 22.44 116 34 C77.72 34 39.44 34 0 34 C0 22.78 0 11.56 0 0 Z " fill="#0000AA" transform="translate(0,0)"/>
<path d="M0 0 C11.22 0 22.44 0 34 0 C34 9.57 34 19.14 34 29 C22.78 29 11.56 29 0 29 C0 19.43 0 9.86 0 0 Z " fill="#C3C7CB" transform="translate(39,2)"/>
<path d="M0 0 C11.22 0 22.44 0 34 0 C34 9.57 34 19.14 34 29 C22.78 29 11.56 29 0 29 C0 19.43 0 9.86 0 0 Z " fill="#C3C7CB" transform="translate(3,2)"/>
<path d="M0 0 C10.89 0 21.78 0 33 0 C33 9.57 33 19.14 33 29 C22.11 29 11.22 29 0 29 C0 19.43 0 9.86 0 0 Z " fill="#C3C7CB" transform="translate(80,2)"/>
<path d="M0 0 C0.66 0 1.32 0 2 0 C2 9.57 2 19.14 2 29 C13.22 29 24.44 29 36 29 C36 19.43 36 9.86 36 0 C36.66 0 37.32 0 38 0 C38 10.23 38 20.46 38 31 C14.24 31 -9.52 31 -34 31 C-34 30.34 -34 29.68 -34 29 C-22.78 29 -11.56 29 0 29 C0 19.43 0 9.86 0 0 Z " fill="#000000" transform="translate(37,2)"/>
<path d="M0 0 C5.28 0 10.56 0 16 0 C16 4.29 16 8.58 16 13 C10.72 13 5.44 13 0 13 C0 8.71 0 4.42 0 0 Z " fill="#C3C7CB" transform="translate(48,11)"/>
<path d="M0 0 C6.6 0 13.2 0 20 0 C20 6.6 20 13.2 20 20 C13.4 20 6.8 20 0 20 C0 13.4 0 6.8 0 0 Z M2 5 C2 9.29 2 13.58 2 18 C7.28 18 12.56 18 18 18 C18 13.71 18 9.42 18 5 C12.72 5 7.44 5 2 5 Z " fill="#000000" transform="translate(46,6)"/>
<path d="M0 0 C0.99 0 1.98 0 3 0 C3 10.23 3 20.46 3 31 C-8.88 31 -20.76 31 -33 31 C-33 30.34 -33 29.68 -33 29 C-22.11 29 -11.22 29 0 29 C0 19.43 0 9.86 0 0 Z " fill="#000000" transform="translate(113,2)"/>
<path d="M0 0 C1.32 0 2.64 0 4 0 C4 0.99 4 1.98 4 3 C4.66 3 5.32 3 6 3 C6 3.66 6 4.32 6 5 C7.65 5 9.3 5 11 5 C11 4.34 11 3.68 11 3 C11.66 3 12.32 3 13 3 C13 2.01 13 1.02 13 0 C14.65 0 16.3 0 18 0 C18 0.99 18 1.98 18 3 C17.01 3 16.02 3 15 3 C15 3.66 15 4.32 15 5 C14.34 5 13.68 5 13 5 C13 5.66 13 6.32 13 7 C12.34 7 11.68 7 11 7 C11 7.66 11 8.32 11 9 C11.66 9 12.32 9 13 9 C13 9.99 13 10.98 13 12 C13.66 12 14.32 12 15 12 C15 12.66 15 13.32 15 14 C15.99 14 16.98 14 18 14 C18 14.66 18 15.32 18 16 C16.35 16 14.7 16 13 16 C13 15.34 13 14.68 13 14 C12.34 14 11.68 14 11 14 C11 13.34 11 12.68 11 12 C9.35 12 7.7 12 6 12 C6 12.66 6 13.32 6 14 C5.34 14 4.68 14 4 14 C4 14.66 4 15.32 4 16 C2.68 16 1.36 16 0 16 C0 15.34 0 14.68 0 14 C0.66 14 1.32 14 2 14 C2 13.34 2 12.68 2 12 C2.66 12 3.32 12 4 12 C4 11.01 4 10.02 4 9 C4.66 9 5.32 9 6 9 C6 8.34 6 7.68 6 7 C5.34 7 4.68 7 4 7 C4 6.34 4 5.68 4 5 C3.34 5 2.68 5 2 5 C2 4.34 2 3.68 2 3 C1.34 3 0.68 3 0 3 C0 2.01 0 1.02 0 0 Z " fill="#000000" transform="translate(89,8)"/>
<path d="M0 0 C11.22 0 22.44 0 34 0 C34 0.66 34 1.32 34 2 C23.44 2 12.88 2 2 2 C2 10.91 2 19.82 2 29 C1.34 29 0.68 29 0 29 C0 19.43 0 9.86 0 0 Z " fill="#FFFFFF" transform="translate(39,2)"/>
<path d="M0 0 C11.22 0 22.44 0 34 0 C34 0.66 34 1.32 34 2 C23.44 2 12.88 2 2 2 C2 10.91 2 19.82 2 29 C1.34 29 0.68 29 0 29 C0 19.43 0 9.86 0 0 Z " fill="#FFFFFF" transform="translate(3,2)"/>
<path d="M0 0 C10.89 0 21.78 0 33 0 C33 0.66 33 1.32 33 2 C22.77 2 12.54 2 2 2 C2 10.91 2 19.82 2 29 C1.34 29 0.68 29 0 29 C0 19.43 0 9.86 0 0 Z " fill="#FFFFFF" transform="translate(80,2)"/>
<path d="M0 0 C0.66 0 1.32 0 2 0 C2 8.91 2 17.82 2 27 C-8.56 27 -19.12 27 -30 27 C-30 26.34 -30 25.68 -30 25 C-20.1 25 -10.2 25 0 25 C0 16.75 0 8.5 0 0 Z " fill="#868A8E" transform="translate(71,4)"/>
<path d="M0 0 C0.66 0 1.32 0 2 0 C2 8.91 2 17.82 2 27 C-8.56 27 -19.12 27 -30 27 C-30 26.34 -30 25.68 -30 25 C-20.1 25 -10.2 25 0 25 C0 16.75 0 8.5 0 0 Z " fill="#868A8E" transform="translate(35,4)"/>
<path d="M0 0 C0.66 0 1.32 0 2 0 C2 8.91 2 17.82 2 27 C-8.23 27 -18.46 27 -29 27 C-29 26.34 -29 25.68 -29 25 C-19.43 25 -9.86 25 0 25 C0 16.75 0 8.5 0 0 Z " fill="#868A8E" transform="translate(111,4)"/>
<path d="M0 0 C4.62 0 9.24 0 14 0 C14 1.32 14 2.64 14 4 C9.38 4 4.76 4 0 4 C0 2.68 0 1.36 0 0 Z " fill="#000000" transform="translate(12,22)"/>
</svg>
