<svg version="1.2" xmlns="http://www.w3.org/2000/svg" viewBox="0 0 400 400" width="400" height="400">
	<title>New Project</title>
	<style>
		.s0 { fill: #000000 } 
		.s1 { fill: #000000;stroke: #000000;stroke-miterlimit:100;stroke-width: 10 } 
	</style>
	<path id="Shape 1" class="s0" d="m74.8 265.9c26.1-9.9 53.1-1.1 60.3 19.6 7.3 20.8-8 45.5-34 55.4-26.1 9.9-53.1 1.1-60.3-19.6-7.2-20.8 8-45.5 34-55.4zm0 0c26.1-9.9 53.1-1.1 60.3 19.6 7.3 20.8-8 45.5-34 55.4-26.1 9.9-53.1 1.1-60.3-19.6-7.2-20.8 8-45.5 34-55.4z"/>
	<path id="Shape 1 copy" class="s0" d="m263.9 265.9c26.1-9.9 53.1-1.1 60.3 19.6 7.2 20.8-8 45.5-34 55.4-26.1 9.9-53.1 1.1-60.3-19.6-7.3-20.8 8-45.5 34-55.4zm0 0c26.1-9.9 53.1-1.1 60.3 19.6 7.2 20.8-8 45.5-34 55.4-26.1 9.9-53.1 1.1-60.3-19.6-7.3-20.8 8-45.5 34-55.4z"/>
	<path id="Shape 2" fill-rule="evenodd" class="s1" d="m129.6 291.4h-6.9v-206.7h6.9z"/>
	<path id="Shape 2 copy" fill-rule="evenodd" class="s1" d="m320.2 288.7h-7.2v-229.6h7.2z"/>
	<path id="Shape 3" fill-rule="evenodd" class="s1" d="m123.9 90.7l-0.8-8.1 195.4-27.6 0.8 8.1z"/>
</svg>